<svg width="100" height="100" viewBox="0 0 100 100" fill="none" xmlns="http://www.w3.org/2000/svg">
<path d="M71.5273 0C87.2521 0 100 12.7479 100 28.4727C99.9999 37.0713 96.188 44.7794 90.1621 50C96.188 55.2206 99.9999 62.9287 100 71.5273C100 87.2521 87.2521 100 71.5273 100C62.9287 99.9999 55.2206 96.188 50 90.1621C44.7794 96.188 37.0713 99.9999 28.4727 100C12.7479 100 0 87.2521 0 71.5273C0.000128512 62.929 3.81134 55.2205 9.83691 50C3.81134 44.7795 0.00012852 37.071 0 28.4727C0 12.7479 12.7479 0 28.4727 0C37.071 0.000128512 44.7795 3.81134 50 9.83691C55.2205 3.81134 62.929 0.00012852 71.5273 0Z" fill="#468A9A"/>
</svg>
